<mxfile host="app.diagrams.net" modified="2023-05-27T16:51:10.326Z" agent="Mozilla/5.0 (Windows NT 10.0; Win64; x64) AppleWebKit/537.36 (KHTML, like Gecko) Chrome/113.0.0.0 Safari/537.36" etag="9sCWQDulgDdzDcgf5-md" version="21.3.4" type="device">
  <diagram name="Ej1" id="omywmnUQrW2sfDem47yN">
    <mxGraphModel dx="2048" dy="1805" grid="1" gridSize="10" guides="1" tooltips="1" connect="1" arrows="1" fold="1" page="1" pageScale="1" pageWidth="827" pageHeight="1169" math="0" shadow="0">
      <root>
        <mxCell id="0" />
        <mxCell id="1" parent="0" />
        <mxCell id="4cb26tjFYuP7g8rkI_uQ-1" value="Biblioteca" style="swimlane;fontStyle=1;align=center;verticalAlign=top;childLayout=stackLayout;horizontal=1;startSize=26;horizontalStack=0;resizeParent=1;resizeParentMax=0;resizeLast=0;collapsible=1;marginBottom=0;whiteSpace=wrap;html=1;" vertex="1" parent="1">
          <mxGeometry x="40" y="99" width="160" height="138" as="geometry" />
        </mxCell>
        <mxCell id="4cb26tjFYuP7g8rkI_uQ-2" value="-Libros:List&amp;lt;Libros&amp;gt;" style="text;strokeColor=none;fillColor=none;align=left;verticalAlign=top;spacingLeft=4;spacingRight=4;overflow=hidden;rotatable=0;points=[[0,0.5],[1,0.5]];portConstraint=eastwest;whiteSpace=wrap;html=1;" vertex="1" parent="4cb26tjFYuP7g8rkI_uQ-1">
          <mxGeometry y="26" width="160" height="26" as="geometry" />
        </mxCell>
        <mxCell id="4cb26tjFYuP7g8rkI_uQ-62" value="-Nombre" style="text;strokeColor=none;fillColor=none;align=left;verticalAlign=top;spacingLeft=4;spacingRight=4;overflow=hidden;rotatable=0;points=[[0,0.5],[1,0.5]];portConstraint=eastwest;whiteSpace=wrap;html=1;" vertex="1" parent="4cb26tjFYuP7g8rkI_uQ-1">
          <mxGeometry y="52" width="160" height="26" as="geometry" />
        </mxCell>
        <mxCell id="4cb26tjFYuP7g8rkI_uQ-63" value="-Direccion" style="text;strokeColor=none;fillColor=none;align=left;verticalAlign=top;spacingLeft=4;spacingRight=4;overflow=hidden;rotatable=0;points=[[0,0.5],[1,0.5]];portConstraint=eastwest;whiteSpace=wrap;html=1;" vertex="1" parent="4cb26tjFYuP7g8rkI_uQ-1">
          <mxGeometry y="78" width="160" height="26" as="geometry" />
        </mxCell>
        <mxCell id="4cb26tjFYuP7g8rkI_uQ-3" value="" style="line;strokeWidth=1;fillColor=none;align=left;verticalAlign=middle;spacingTop=-1;spacingLeft=3;spacingRight=3;rotatable=0;labelPosition=right;points=[];portConstraint=eastwest;strokeColor=inherit;" vertex="1" parent="4cb26tjFYuP7g8rkI_uQ-1">
          <mxGeometry y="104" width="160" height="8" as="geometry" />
        </mxCell>
        <mxCell id="4cb26tjFYuP7g8rkI_uQ-4" value="+ method(type): type" style="text;strokeColor=none;fillColor=none;align=left;verticalAlign=top;spacingLeft=4;spacingRight=4;overflow=hidden;rotatable=0;points=[[0,0.5],[1,0.5]];portConstraint=eastwest;whiteSpace=wrap;html=1;" vertex="1" parent="4cb26tjFYuP7g8rkI_uQ-1">
          <mxGeometry y="112" width="160" height="26" as="geometry" />
        </mxCell>
        <mxCell id="4cb26tjFYuP7g8rkI_uQ-5" value="" style="html=1;verticalAlign=bottom;labelBackgroundColor=none;endArrow=none;endFill=0;rounded=0;" edge="1" parent="1" source="4cb26tjFYuP7g8rkI_uQ-1" target="4cb26tjFYuP7g8rkI_uQ-7">
          <mxGeometry width="160" relative="1" as="geometry">
            <mxPoint x="200" y="192.5" as="sourcePoint" />
            <mxPoint x="290" y="120" as="targetPoint" />
            <Array as="points" />
          </mxGeometry>
        </mxCell>
        <mxCell id="4cb26tjFYuP7g8rkI_uQ-58" value="N" style="edgeLabel;html=1;align=center;verticalAlign=middle;resizable=0;points=[];" vertex="1" connectable="0" parent="4cb26tjFYuP7g8rkI_uQ-5">
          <mxGeometry x="-0.3732" y="1" relative="1" as="geometry">
            <mxPoint x="78" y="-3" as="offset" />
          </mxGeometry>
        </mxCell>
        <mxCell id="4cb26tjFYuP7g8rkI_uQ-59" value="1" style="edgeLabel;html=1;align=center;verticalAlign=middle;resizable=0;points=[];" vertex="1" connectable="0" parent="4cb26tjFYuP7g8rkI_uQ-5">
          <mxGeometry x="0.6118" y="4" relative="1" as="geometry">
            <mxPoint x="-98" as="offset" />
          </mxGeometry>
        </mxCell>
        <mxCell id="4cb26tjFYuP7g8rkI_uQ-44" value="N" style="edgeStyle=orthogonalEdgeStyle;rounded=0;orthogonalLoop=1;jettySize=auto;html=1;endArrow=none;endFill=0;" edge="1" parent="1" source="4cb26tjFYuP7g8rkI_uQ-7" target="4cb26tjFYuP7g8rkI_uQ-11">
          <mxGeometry x="-0.6818" relative="1" as="geometry">
            <Array as="points">
              <mxPoint x="414" y="70" />
              <mxPoint x="414" y="70" />
            </Array>
            <mxPoint as="offset" />
          </mxGeometry>
        </mxCell>
        <mxCell id="4cb26tjFYuP7g8rkI_uQ-53" style="edgeStyle=orthogonalEdgeStyle;rounded=0;orthogonalLoop=1;jettySize=auto;html=1;endArrow=none;endFill=0;" edge="1" parent="1" source="4cb26tjFYuP7g8rkI_uQ-7" target="4cb26tjFYuP7g8rkI_uQ-35">
          <mxGeometry relative="1" as="geometry">
            <Array as="points">
              <mxPoint x="260" y="220" />
            </Array>
          </mxGeometry>
        </mxCell>
        <mxCell id="4cb26tjFYuP7g8rkI_uQ-7" value="Libro" style="swimlane;fontStyle=1;align=center;verticalAlign=top;childLayout=stackLayout;horizontal=1;startSize=26;horizontalStack=0;resizeParent=1;resizeParentMax=0;resizeLast=0;collapsible=1;marginBottom=0;whiteSpace=wrap;html=1;" vertex="1" parent="1">
          <mxGeometry x="334" y="81" width="160" height="174" as="geometry" />
        </mxCell>
        <mxCell id="4cb26tjFYuP7g8rkI_uQ-8" value="-Codigo" style="text;strokeColor=none;fillColor=none;align=left;verticalAlign=top;spacingLeft=4;spacingRight=4;overflow=hidden;rotatable=0;points=[[0,0.5],[1,0.5]];portConstraint=eastwest;whiteSpace=wrap;html=1;" vertex="1" parent="4cb26tjFYuP7g8rkI_uQ-7">
          <mxGeometry y="26" width="160" height="26" as="geometry" />
        </mxCell>
        <mxCell id="4cb26tjFYuP7g8rkI_uQ-60" value="-Nombre" style="text;strokeColor=none;fillColor=none;align=left;verticalAlign=top;spacingLeft=4;spacingRight=4;overflow=hidden;rotatable=0;points=[[0,0.5],[1,0.5]];portConstraint=eastwest;whiteSpace=wrap;html=1;" vertex="1" parent="4cb26tjFYuP7g8rkI_uQ-7">
          <mxGeometry y="52" width="160" height="26" as="geometry" />
        </mxCell>
        <mxCell id="4cb26tjFYuP7g8rkI_uQ-61" value="-FechaPublicacion" style="text;strokeColor=none;fillColor=none;align=left;verticalAlign=top;spacingLeft=4;spacingRight=4;overflow=hidden;rotatable=0;points=[[0,0.5],[1,0.5]];portConstraint=eastwest;whiteSpace=wrap;html=1;" vertex="1" parent="4cb26tjFYuP7g8rkI_uQ-7">
          <mxGeometry y="78" width="160" height="22" as="geometry" />
        </mxCell>
        <mxCell id="4cb26tjFYuP7g8rkI_uQ-67" value="-Generos:List&amp;lt;Genero&amp;gt;&lt;br&gt;-Autores:List&amp;lt;Autor&amp;gt;" style="text;strokeColor=none;fillColor=none;align=left;verticalAlign=top;spacingLeft=4;spacingRight=4;overflow=hidden;rotatable=0;points=[[0,0.5],[1,0.5]];portConstraint=eastwest;whiteSpace=wrap;html=1;" vertex="1" parent="4cb26tjFYuP7g8rkI_uQ-7">
          <mxGeometry y="100" width="160" height="40" as="geometry" />
        </mxCell>
        <mxCell id="4cb26tjFYuP7g8rkI_uQ-9" value="" style="line;strokeWidth=1;fillColor=none;align=left;verticalAlign=middle;spacingTop=-1;spacingLeft=3;spacingRight=3;rotatable=0;labelPosition=right;points=[];portConstraint=eastwest;strokeColor=inherit;" vertex="1" parent="4cb26tjFYuP7g8rkI_uQ-7">
          <mxGeometry y="140" width="160" height="8" as="geometry" />
        </mxCell>
        <mxCell id="4cb26tjFYuP7g8rkI_uQ-10" value="+ method(type): type" style="text;strokeColor=none;fillColor=none;align=left;verticalAlign=top;spacingLeft=4;spacingRight=4;overflow=hidden;rotatable=0;points=[[0,0.5],[1,0.5]];portConstraint=eastwest;whiteSpace=wrap;html=1;" vertex="1" parent="4cb26tjFYuP7g8rkI_uQ-7">
          <mxGeometry y="148" width="160" height="26" as="geometry" />
        </mxCell>
        <mxCell id="4cb26tjFYuP7g8rkI_uQ-57" style="edgeStyle=orthogonalEdgeStyle;rounded=0;orthogonalLoop=1;jettySize=auto;html=1;endArrow=block;endFill=0;" edge="1" parent="1" source="4cb26tjFYuP7g8rkI_uQ-11" target="4cb26tjFYuP7g8rkI_uQ-19">
          <mxGeometry relative="1" as="geometry">
            <Array as="points">
              <mxPoint x="910" y="-7" />
              <mxPoint x="910" y="590" />
              <mxPoint x="430" y="590" />
            </Array>
          </mxGeometry>
        </mxCell>
        <mxCell id="4cb26tjFYuP7g8rkI_uQ-11" value="Autor" style="swimlane;fontStyle=1;align=center;verticalAlign=top;childLayout=stackLayout;horizontal=1;startSize=26;horizontalStack=0;resizeParent=1;resizeParentMax=0;resizeLast=0;collapsible=1;marginBottom=0;whiteSpace=wrap;html=1;" vertex="1" parent="1">
          <mxGeometry x="340" y="-50" width="160" height="60" as="geometry" />
        </mxCell>
        <mxCell id="4cb26tjFYuP7g8rkI_uQ-13" value="" style="line;strokeWidth=1;fillColor=none;align=left;verticalAlign=middle;spacingTop=-1;spacingLeft=3;spacingRight=3;rotatable=0;labelPosition=right;points=[];portConstraint=eastwest;strokeColor=inherit;" vertex="1" parent="4cb26tjFYuP7g8rkI_uQ-11">
          <mxGeometry y="26" width="160" height="8" as="geometry" />
        </mxCell>
        <mxCell id="4cb26tjFYuP7g8rkI_uQ-14" value="+ method(type): type" style="text;strokeColor=none;fillColor=none;align=left;verticalAlign=top;spacingLeft=4;spacingRight=4;overflow=hidden;rotatable=0;points=[[0,0.5],[1,0.5]];portConstraint=eastwest;whiteSpace=wrap;html=1;" vertex="1" parent="4cb26tjFYuP7g8rkI_uQ-11">
          <mxGeometry y="34" width="160" height="26" as="geometry" />
        </mxCell>
        <mxCell id="4cb26tjFYuP7g8rkI_uQ-15" value="Genero&lt;br&gt;&amp;lt;&amp;lt;enum&amp;gt;&amp;gt;" style="swimlane;fontStyle=1;align=center;verticalAlign=top;childLayout=stackLayout;horizontal=1;startSize=40;horizontalStack=0;resizeParent=1;resizeParentMax=0;resizeLast=0;collapsible=1;marginBottom=0;whiteSpace=wrap;html=1;" vertex="1" parent="1">
          <mxGeometry x="660" y="48" width="160" height="144" as="geometry" />
        </mxCell>
        <mxCell id="4cb26tjFYuP7g8rkI_uQ-16" value="Ficcion&lt;br&gt;Comedia&lt;br&gt;Terror&lt;br&gt;" style="text;strokeColor=none;fillColor=none;align=left;verticalAlign=top;spacingLeft=4;spacingRight=4;overflow=hidden;rotatable=0;points=[[0,0.5],[1,0.5]];portConstraint=eastwest;whiteSpace=wrap;html=1;" vertex="1" parent="4cb26tjFYuP7g8rkI_uQ-15">
          <mxGeometry y="40" width="160" height="70" as="geometry" />
        </mxCell>
        <mxCell id="4cb26tjFYuP7g8rkI_uQ-17" value="" style="line;strokeWidth=1;fillColor=none;align=left;verticalAlign=middle;spacingTop=-1;spacingLeft=3;spacingRight=3;rotatable=0;labelPosition=right;points=[];portConstraint=eastwest;strokeColor=inherit;" vertex="1" parent="4cb26tjFYuP7g8rkI_uQ-15">
          <mxGeometry y="110" width="160" height="8" as="geometry" />
        </mxCell>
        <mxCell id="4cb26tjFYuP7g8rkI_uQ-18" value="+ method(type): type" style="text;strokeColor=none;fillColor=none;align=left;verticalAlign=top;spacingLeft=4;spacingRight=4;overflow=hidden;rotatable=0;points=[[0,0.5],[1,0.5]];portConstraint=eastwest;whiteSpace=wrap;html=1;" vertex="1" parent="4cb26tjFYuP7g8rkI_uQ-15">
          <mxGeometry y="118" width="160" height="26" as="geometry" />
        </mxCell>
        <mxCell id="4cb26tjFYuP7g8rkI_uQ-19" value="Persona" style="swimlane;fontStyle=1;align=center;verticalAlign=top;childLayout=stackLayout;horizontal=1;startSize=26;horizontalStack=0;resizeParent=1;resizeParentMax=0;resizeLast=0;collapsible=1;marginBottom=0;whiteSpace=wrap;html=1;" vertex="1" parent="1">
          <mxGeometry x="350" y="650" width="160" height="124" as="geometry" />
        </mxCell>
        <mxCell id="4cb26tjFYuP7g8rkI_uQ-20" value="-CI&lt;br&gt;-Nombre&lt;br&gt;-Apellido" style="text;strokeColor=none;fillColor=none;align=left;verticalAlign=top;spacingLeft=4;spacingRight=4;overflow=hidden;rotatable=0;points=[[0,0.5],[1,0.5]];portConstraint=eastwest;whiteSpace=wrap;html=1;" vertex="1" parent="4cb26tjFYuP7g8rkI_uQ-19">
          <mxGeometry y="26" width="160" height="64" as="geometry" />
        </mxCell>
        <mxCell id="4cb26tjFYuP7g8rkI_uQ-21" value="" style="line;strokeWidth=1;fillColor=none;align=left;verticalAlign=middle;spacingTop=-1;spacingLeft=3;spacingRight=3;rotatable=0;labelPosition=right;points=[];portConstraint=eastwest;strokeColor=inherit;" vertex="1" parent="4cb26tjFYuP7g8rkI_uQ-19">
          <mxGeometry y="90" width="160" height="8" as="geometry" />
        </mxCell>
        <mxCell id="4cb26tjFYuP7g8rkI_uQ-22" value="+ method(type): type" style="text;strokeColor=none;fillColor=none;align=left;verticalAlign=top;spacingLeft=4;spacingRight=4;overflow=hidden;rotatable=0;points=[[0,0.5],[1,0.5]];portConstraint=eastwest;whiteSpace=wrap;html=1;" vertex="1" parent="4cb26tjFYuP7g8rkI_uQ-19">
          <mxGeometry y="98" width="160" height="26" as="geometry" />
        </mxCell>
        <mxCell id="4cb26tjFYuP7g8rkI_uQ-49" style="edgeStyle=orthogonalEdgeStyle;rounded=0;orthogonalLoop=1;jettySize=auto;html=1;endArrow=none;endFill=0;" edge="1" parent="1" source="4cb26tjFYuP7g8rkI_uQ-23" target="4cb26tjFYuP7g8rkI_uQ-35">
          <mxGeometry relative="1" as="geometry">
            <Array as="points">
              <mxPoint x="440" y="483" />
              <mxPoint x="440" y="430" />
              <mxPoint x="260" y="430" />
            </Array>
          </mxGeometry>
        </mxCell>
        <mxCell id="4cb26tjFYuP7g8rkI_uQ-56" style="edgeStyle=orthogonalEdgeStyle;rounded=0;orthogonalLoop=1;jettySize=auto;html=1;endArrow=block;endFill=0;" edge="1" parent="1" source="4cb26tjFYuP7g8rkI_uQ-23" target="4cb26tjFYuP7g8rkI_uQ-19">
          <mxGeometry relative="1" as="geometry">
            <Array as="points">
              <mxPoint x="550" y="590" />
              <mxPoint x="430" y="590" />
            </Array>
          </mxGeometry>
        </mxCell>
        <mxCell id="4cb26tjFYuP7g8rkI_uQ-23" value="Miembro" style="swimlane;fontStyle=1;align=center;verticalAlign=top;childLayout=stackLayout;horizontal=1;startSize=26;horizontalStack=0;resizeParent=1;resizeParentMax=0;resizeLast=0;collapsible=1;marginBottom=0;whiteSpace=wrap;html=1;" vertex="1" parent="1">
          <mxGeometry x="470" y="460" width="160" height="86" as="geometry" />
        </mxCell>
        <mxCell id="4cb26tjFYuP7g8rkI_uQ-24" value="-NroMiembro" style="text;strokeColor=none;fillColor=none;align=left;verticalAlign=top;spacingLeft=4;spacingRight=4;overflow=hidden;rotatable=0;points=[[0,0.5],[1,0.5]];portConstraint=eastwest;whiteSpace=wrap;html=1;" vertex="1" parent="4cb26tjFYuP7g8rkI_uQ-23">
          <mxGeometry y="26" width="160" height="26" as="geometry" />
        </mxCell>
        <mxCell id="4cb26tjFYuP7g8rkI_uQ-25" value="" style="line;strokeWidth=1;fillColor=none;align=left;verticalAlign=middle;spacingTop=-1;spacingLeft=3;spacingRight=3;rotatable=0;labelPosition=right;points=[];portConstraint=eastwest;strokeColor=inherit;" vertex="1" parent="4cb26tjFYuP7g8rkI_uQ-23">
          <mxGeometry y="52" width="160" height="8" as="geometry" />
        </mxCell>
        <mxCell id="4cb26tjFYuP7g8rkI_uQ-26" value="+ method(type): type" style="text;strokeColor=none;fillColor=none;align=left;verticalAlign=top;spacingLeft=4;spacingRight=4;overflow=hidden;rotatable=0;points=[[0,0.5],[1,0.5]];portConstraint=eastwest;whiteSpace=wrap;html=1;" vertex="1" parent="4cb26tjFYuP7g8rkI_uQ-23">
          <mxGeometry y="60" width="160" height="26" as="geometry" />
        </mxCell>
        <mxCell id="4cb26tjFYuP7g8rkI_uQ-47" style="edgeStyle=orthogonalEdgeStyle;rounded=0;orthogonalLoop=1;jettySize=auto;html=1;endArrow=none;endFill=0;" edge="1" parent="1" source="4cb26tjFYuP7g8rkI_uQ-27" target="4cb26tjFYuP7g8rkI_uQ-23">
          <mxGeometry relative="1" as="geometry" />
        </mxCell>
        <mxCell id="4cb26tjFYuP7g8rkI_uQ-27" value="Prestamo" style="swimlane;fontStyle=1;align=center;verticalAlign=top;childLayout=stackLayout;horizontal=1;startSize=26;horizontalStack=0;resizeParent=1;resizeParentMax=0;resizeLast=0;collapsible=1;marginBottom=0;whiteSpace=wrap;html=1;" vertex="1" parent="1">
          <mxGeometry x="470" y="270" width="160" height="154" as="geometry" />
        </mxCell>
        <mxCell id="4cb26tjFYuP7g8rkI_uQ-28" value="-LibroPrestado:Libro&lt;br&gt;-Solicitante:Miembro&lt;br&gt;-FechaEntregado:Date&lt;br&gt;-FechaLimite:Date&lt;br&gt;-Empleado:Empleado" style="text;strokeColor=none;fillColor=none;align=left;verticalAlign=top;spacingLeft=4;spacingRight=4;overflow=hidden;rotatable=0;points=[[0,0.5],[1,0.5]];portConstraint=eastwest;whiteSpace=wrap;html=1;" vertex="1" parent="4cb26tjFYuP7g8rkI_uQ-27">
          <mxGeometry y="26" width="160" height="94" as="geometry" />
        </mxCell>
        <mxCell id="4cb26tjFYuP7g8rkI_uQ-29" value="" style="line;strokeWidth=1;fillColor=none;align=left;verticalAlign=middle;spacingTop=-1;spacingLeft=3;spacingRight=3;rotatable=0;labelPosition=right;points=[];portConstraint=eastwest;strokeColor=inherit;" vertex="1" parent="4cb26tjFYuP7g8rkI_uQ-27">
          <mxGeometry y="120" width="160" height="8" as="geometry" />
        </mxCell>
        <mxCell id="4cb26tjFYuP7g8rkI_uQ-30" value="+ method(type): type" style="text;strokeColor=none;fillColor=none;align=left;verticalAlign=top;spacingLeft=4;spacingRight=4;overflow=hidden;rotatable=0;points=[[0,0.5],[1,0.5]];portConstraint=eastwest;whiteSpace=wrap;html=1;" vertex="1" parent="4cb26tjFYuP7g8rkI_uQ-27">
          <mxGeometry y="128" width="160" height="26" as="geometry" />
        </mxCell>
        <mxCell id="4cb26tjFYuP7g8rkI_uQ-48" style="edgeStyle=orthogonalEdgeStyle;rounded=0;orthogonalLoop=1;jettySize=auto;html=1;endArrow=none;endFill=0;" edge="1" parent="1" source="4cb26tjFYuP7g8rkI_uQ-31" target="4cb26tjFYuP7g8rkI_uQ-27">
          <mxGeometry relative="1" as="geometry">
            <Array as="points">
              <mxPoint x="410" y="483" />
              <mxPoint x="410" y="333" />
            </Array>
          </mxGeometry>
        </mxCell>
        <mxCell id="4cb26tjFYuP7g8rkI_uQ-50" style="edgeStyle=orthogonalEdgeStyle;rounded=0;orthogonalLoop=1;jettySize=auto;html=1;endArrow=none;endFill=0;" edge="1" parent="1" source="4cb26tjFYuP7g8rkI_uQ-31" target="4cb26tjFYuP7g8rkI_uQ-35">
          <mxGeometry relative="1" as="geometry">
            <Array as="points">
              <mxPoint x="240" y="420" />
              <mxPoint x="240" y="420" />
            </Array>
          </mxGeometry>
        </mxCell>
        <mxCell id="4cb26tjFYuP7g8rkI_uQ-55" style="edgeStyle=orthogonalEdgeStyle;rounded=0;orthogonalLoop=1;jettySize=auto;html=1;endArrow=block;endFill=0;" edge="1" parent="1" source="4cb26tjFYuP7g8rkI_uQ-31" target="4cb26tjFYuP7g8rkI_uQ-19">
          <mxGeometry relative="1" as="geometry">
            <Array as="points">
              <mxPoint x="300" y="590" />
              <mxPoint x="430" y="590" />
            </Array>
          </mxGeometry>
        </mxCell>
        <mxCell id="4cb26tjFYuP7g8rkI_uQ-31" value="Empleado" style="swimlane;fontStyle=1;align=center;verticalAlign=top;childLayout=stackLayout;horizontal=1;startSize=26;horizontalStack=0;resizeParent=1;resizeParentMax=0;resizeLast=0;collapsible=1;marginBottom=0;whiteSpace=wrap;html=1;" vertex="1" parent="1">
          <mxGeometry x="220" y="450" width="160" height="86" as="geometry" />
        </mxCell>
        <mxCell id="4cb26tjFYuP7g8rkI_uQ-32" value="-NroEmpleado" style="text;strokeColor=none;fillColor=none;align=left;verticalAlign=top;spacingLeft=4;spacingRight=4;overflow=hidden;rotatable=0;points=[[0,0.5],[1,0.5]];portConstraint=eastwest;whiteSpace=wrap;html=1;" vertex="1" parent="4cb26tjFYuP7g8rkI_uQ-31">
          <mxGeometry y="26" width="160" height="26" as="geometry" />
        </mxCell>
        <mxCell id="4cb26tjFYuP7g8rkI_uQ-33" value="" style="line;strokeWidth=1;fillColor=none;align=left;verticalAlign=middle;spacingTop=-1;spacingLeft=3;spacingRight=3;rotatable=0;labelPosition=right;points=[];portConstraint=eastwest;strokeColor=inherit;" vertex="1" parent="4cb26tjFYuP7g8rkI_uQ-31">
          <mxGeometry y="52" width="160" height="8" as="geometry" />
        </mxCell>
        <mxCell id="4cb26tjFYuP7g8rkI_uQ-34" value="+ method(type): type" style="text;strokeColor=none;fillColor=none;align=left;verticalAlign=top;spacingLeft=4;spacingRight=4;overflow=hidden;rotatable=0;points=[[0,0.5],[1,0.5]];portConstraint=eastwest;whiteSpace=wrap;html=1;" vertex="1" parent="4cb26tjFYuP7g8rkI_uQ-31">
          <mxGeometry y="60" width="160" height="26" as="geometry" />
        </mxCell>
        <mxCell id="4cb26tjFYuP7g8rkI_uQ-35" value="Devoluciones" style="swimlane;fontStyle=1;align=center;verticalAlign=top;childLayout=stackLayout;horizontal=1;startSize=26;horizontalStack=0;resizeParent=1;resizeParentMax=0;resizeLast=0;collapsible=1;marginBottom=0;whiteSpace=wrap;html=1;" vertex="1" parent="1">
          <mxGeometry x="180" y="270" width="180" height="144" as="geometry" />
        </mxCell>
        <mxCell id="4cb26tjFYuP7g8rkI_uQ-36" value="-LibroDeuvelto:Libro&lt;br style=&quot;border-color: var(--border-color);&quot;&gt;-MiembroDevolucion:Miembro&lt;br style=&quot;border-color: var(--border-color);&quot;&gt;-FechaEntregado:Date&lt;br style=&quot;border-color: var(--border-color);&quot;&gt;-Empleado:Empleado" style="text;strokeColor=none;fillColor=none;align=left;verticalAlign=top;spacingLeft=4;spacingRight=4;overflow=hidden;rotatable=0;points=[[0,0.5],[1,0.5]];portConstraint=eastwest;whiteSpace=wrap;html=1;" vertex="1" parent="4cb26tjFYuP7g8rkI_uQ-35">
          <mxGeometry y="26" width="180" height="84" as="geometry" />
        </mxCell>
        <mxCell id="4cb26tjFYuP7g8rkI_uQ-37" value="" style="line;strokeWidth=1;fillColor=none;align=left;verticalAlign=middle;spacingTop=-1;spacingLeft=3;spacingRight=3;rotatable=0;labelPosition=right;points=[];portConstraint=eastwest;strokeColor=inherit;" vertex="1" parent="4cb26tjFYuP7g8rkI_uQ-35">
          <mxGeometry y="110" width="180" height="8" as="geometry" />
        </mxCell>
        <mxCell id="4cb26tjFYuP7g8rkI_uQ-38" value="+ method(type): type" style="text;strokeColor=none;fillColor=none;align=left;verticalAlign=top;spacingLeft=4;spacingRight=4;overflow=hidden;rotatable=0;points=[[0,0.5],[1,0.5]];portConstraint=eastwest;whiteSpace=wrap;html=1;" vertex="1" parent="4cb26tjFYuP7g8rkI_uQ-35">
          <mxGeometry y="118" width="180" height="26" as="geometry" />
        </mxCell>
        <mxCell id="4cb26tjFYuP7g8rkI_uQ-39" value="Admin" style="swimlane;fontStyle=1;align=center;verticalAlign=top;childLayout=stackLayout;horizontal=1;startSize=26;horizontalStack=0;resizeParent=1;resizeParentMax=0;resizeLast=0;collapsible=1;marginBottom=0;whiteSpace=wrap;html=1;" vertex="1" parent="1">
          <mxGeometry x="-90" y="450" width="160" height="86" as="geometry" />
        </mxCell>
        <mxCell id="4cb26tjFYuP7g8rkI_uQ-40" value="-NroAdmin" style="text;strokeColor=none;fillColor=none;align=left;verticalAlign=top;spacingLeft=4;spacingRight=4;overflow=hidden;rotatable=0;points=[[0,0.5],[1,0.5]];portConstraint=eastwest;whiteSpace=wrap;html=1;" vertex="1" parent="4cb26tjFYuP7g8rkI_uQ-39">
          <mxGeometry y="26" width="160" height="26" as="geometry" />
        </mxCell>
        <mxCell id="4cb26tjFYuP7g8rkI_uQ-41" value="" style="line;strokeWidth=1;fillColor=none;align=left;verticalAlign=middle;spacingTop=-1;spacingLeft=3;spacingRight=3;rotatable=0;labelPosition=right;points=[];portConstraint=eastwest;strokeColor=inherit;" vertex="1" parent="4cb26tjFYuP7g8rkI_uQ-39">
          <mxGeometry y="52" width="160" height="8" as="geometry" />
        </mxCell>
        <mxCell id="4cb26tjFYuP7g8rkI_uQ-42" value="+ method(type): type" style="text;strokeColor=none;fillColor=none;align=left;verticalAlign=top;spacingLeft=4;spacingRight=4;overflow=hidden;rotatable=0;points=[[0,0.5],[1,0.5]];portConstraint=eastwest;whiteSpace=wrap;html=1;" vertex="1" parent="4cb26tjFYuP7g8rkI_uQ-39">
          <mxGeometry y="60" width="160" height="26" as="geometry" />
        </mxCell>
        <mxCell id="4cb26tjFYuP7g8rkI_uQ-43" style="edgeStyle=orthogonalEdgeStyle;rounded=0;orthogonalLoop=1;jettySize=auto;html=1;endArrow=none;endFill=0;" edge="1" parent="1" source="4cb26tjFYuP7g8rkI_uQ-8" target="4cb26tjFYuP7g8rkI_uQ-15">
          <mxGeometry relative="1" as="geometry" />
        </mxCell>
        <mxCell id="4cb26tjFYuP7g8rkI_uQ-64" value="N" style="edgeLabel;html=1;align=center;verticalAlign=middle;resizable=0;points=[];" vertex="1" connectable="0" parent="4cb26tjFYuP7g8rkI_uQ-43">
          <mxGeometry x="0.707" relative="1" as="geometry">
            <mxPoint as="offset" />
          </mxGeometry>
        </mxCell>
        <mxCell id="4cb26tjFYuP7g8rkI_uQ-65" value="N" style="edgeLabel;html=1;align=center;verticalAlign=middle;resizable=0;points=[];" vertex="1" connectable="0" parent="4cb26tjFYuP7g8rkI_uQ-43">
          <mxGeometry x="-0.6996" y="-4" relative="1" as="geometry">
            <mxPoint x="-14" y="-7" as="offset" />
          </mxGeometry>
        </mxCell>
        <mxCell id="4cb26tjFYuP7g8rkI_uQ-45" style="edgeStyle=orthogonalEdgeStyle;rounded=0;orthogonalLoop=1;jettySize=auto;html=1;entryX=0.5;entryY=0;entryDx=0;entryDy=0;endArrow=none;endFill=0;exitX=1;exitY=0.5;exitDx=0;exitDy=0;" edge="1" parent="1" source="4cb26tjFYuP7g8rkI_uQ-67" target="4cb26tjFYuP7g8rkI_uQ-27">
          <mxGeometry relative="1" as="geometry">
            <Array as="points">
              <mxPoint x="550" y="201" />
            </Array>
          </mxGeometry>
        </mxCell>
        <mxCell id="4cb26tjFYuP7g8rkI_uQ-51" style="edgeStyle=orthogonalEdgeStyle;rounded=0;orthogonalLoop=1;jettySize=auto;html=1;entryX=1;entryY=0.5;entryDx=0;entryDy=0;endArrow=none;endFill=0;startArrow=block;startFill=0;" edge="1" parent="1" source="4cb26tjFYuP7g8rkI_uQ-32" target="4cb26tjFYuP7g8rkI_uQ-40">
          <mxGeometry relative="1" as="geometry" />
        </mxCell>
        <mxCell id="4cb26tjFYuP7g8rkI_uQ-66" value="N" style="text;html=1;align=center;verticalAlign=middle;resizable=0;points=[];autosize=1;strokeColor=none;fillColor=none;" vertex="1" parent="1">
          <mxGeometry x="399" y="36" width="30" height="30" as="geometry" />
        </mxCell>
      </root>
    </mxGraphModel>
  </diagram>
</mxfile>
